<?xml version="1.0" standalone="no"?>
<!DOCTYPE svg PUBLIC "-//W3C//DTD SVG 20010904//EN"
 "http://www.w3.org/TR/2001/REC-SVG-20010904/DTD/svg10.dtd">
<svg version="1.0" xmlns="http://www.w3.org/2000/svg"
 width="787.000000pt" height="787.000000pt" viewBox="0 0 787.000000 787.000000"
 preserveAspectRatio="xMidYMid meet">
<metadata>
Created by potrace 1.14, written by Peter Selinger 2001-2017
</metadata>
<g transform="translate(0.000000,787.000000) scale(0.100000,-0.100000)"
fill="#000000" stroke="none">
<path d="M3474 7424 c-65 -69 -153 -161 -194 -203 -119 -123 -167 -176 -340
-371 -36 -41 -74 -84 -85 -96 -12 -12 -32 -37 -45 -54 -13 -17 -33 -42 -45
-54 -33 -38 -117 -141 -168 -210 -12 -15 -34 -42 -48 -60 -28 -34 -235 -310
-259 -346 -8 -12 -22 -32 -31 -44 -82 -108 -379 -567 -379 -585 0 -6 -4 -11
-9 -11 -5 0 -11 -8 -15 -17 -3 -10 -14 -31 -24 -48 -41 -65 -200 -355 -247
-450 -28 -55 -54 -103 -58 -106 -5 -3 -8 -9 -7 -13 0 -3 -18 -46 -41 -94 -51
-108 -63 -135 -61 -144 1 -5 -3 -8 -8 -8 -6 0 -10 -8 -10 -18 0 -10 -4 -22 -9
-27 -11 -13 -144 -346 -144 -362 0 -7 -4 -13 -9 -13 -4 0 -7 -3 -6 -7 1 -5
-15 -59 -36 -120 -20 -62 -36 -114 -35 -115 1 -2 -3 -13 -10 -26 -7 -13 -14
-31 -16 -40 -1 -9 -8 -37 -15 -62 -7 -25 -11 -45 -10 -45 1 0 -4 -13 -10 -30
-7 -16 -14 -38 -16 -47 -9 -37 -13 -54 -24 -98 -6 -25 -12 -54 -15 -65 -2 -11
-6 -33 -9 -50 -4 -16 -9 -41 -13 -55 -8 -32 -10 -46 -17 -95 -2 -22 -6 -40 -6
-40 -1 0 -3 -11 -5 -25 -2 -14 -6 -41 -9 -60 -25 -141 -39 -330 -39 -525 -1
-171 7 -281 27 -413 3 -18 8 -51 11 -73 4 -23 10 -52 15 -65 5 -13 7 -24 4
-24 -4 0 -1 -6 5 -13 6 -8 8 -16 5 -19 -3 -3 1 -22 10 -41 8 -19 12 -38 9 -40
-2 -3 3 -19 11 -36 9 -17 16 -32 16 -33 -4 -12 55 -167 101 -266 26 -56 49
-106 50 -110 4 -14 114 -188 152 -242 149 -205 331 -389 526 -530 42 -30 78
-58 79 -62 2 -5 8 -6 13 -2 5 3 9 1 9 -3 0 -5 17 -17 38 -28 20 -11 39 -22 42
-26 10 -12 228 -119 300 -147 322 -127 526 -163 880 -158 124 2 241 7 260 10
269 50 391 83 565 153 81 32 279 134 283 144 2 5 8 9 14 9 21 0 221 145 332
240 52 45 170 165 211 214 22 27 45 54 50 60 24 27 185 263 192 284 4 9 9 19
12 22 4 3 17 27 31 54 17 33 39 58 68 76 64 40 175 153 229 234 26 39 67 98
92 131 24 33 47 69 52 80 5 11 17 34 27 50 22 35 111 200 127 232 19 42 78 50
174 24 73 -20 131 -26 266 -26 201 0 351 19 504 65 100 29 131 54 336 272 19
20 31 39 27 42 -5 3 -49 1 -98 -4 -223 -22 -271 -25 -469 -25 -139 0 -234 5
-280 14 -83 16 -226 67 -237 84 -10 15 -8 108 3 123 5 6 10 19 12 30 2 10 9
33 16 49 22 53 41 107 100 280 50 144 58 179 56 231 -1 34 -5 66 -8 71 -7 12
-251 -28 -322 -52 -62 -22 -115 -56 -115 -75 0 -9 -4 -20 -9 -25 -6 -6 -12
-21 -15 -35 -4 -23 -28 -95 -43 -130 -3 -8 -7 -19 -8 -25 -2 -5 -12 -39 -24
-75 -12 -36 -20 -67 -19 -70 2 -3 -6 -16 -18 -28 -23 -25 -49 -21 -91 14 -12
11 -48 41 -80 69 -78 66 -178 180 -259 295 -74 106 -114 156 -114 143 0 -4
-25 30 -55 75 -30 46 -55 86 -55 88 0 3 -5 10 -10 17 -6 7 -101 149 -212 317
-112 168 -207 310 -211 315 -23 27 -167 256 -167 265 0 5 -4 10 -8 10 -5 0
-16 15 -25 33 -9 17 -37 64 -62 102 -25 39 -50 79 -55 90 -6 11 -16 29 -23 40
-52 86 -135 238 -212 390 -82 161 -112 225 -162 345 -8 19 -19 43 -24 52 -5
10 -9 26 -9 36 0 10 -5 23 -11 29 -6 6 -12 17 -13 24 -2 8 -6 21 -9 29 -28 68
-110 342 -121 400 -2 14 -9 45 -15 70 -5 25 -13 61 -16 80 -3 19 -8 42 -10 50
-2 8 -6 38 -10 65 -3 28 -8 66 -10 85 -7 49 -18 252 -18 330 0 55 7 193 18
365 2 22 6 99 10 170 3 72 8 145 10 163 1 17 2 32 1 32 -2 0 -56 -57 -122
-126z m-249 -1056 c8 -36 11 -45 15 -53 1 -3 3 -8 4 -12 5 -32 89 -274 116
-338 10 -22 30 -69 46 -105 33 -76 169 -345 208 -410 15 -25 29 -53 33 -62 3
-10 9 -18 14 -18 5 0 9 -5 9 -11 0 -6 14 -30 30 -54 17 -24 30 -48 30 -54 0
-6 5 -11 10 -11 6 0 10 -4 10 -10 0 -11 62 -103 73 -108 4 -2 7 -9 7 -16 0 -7
9 -21 20 -31 11 -10 20 -22 20 -26 0 -15 263 -377 404 -556 23 -28 51 -64 63
-80 11 -15 52 -67 90 -114 37 -48 79 -101 93 -119 14 -18 71 -92 128 -164 121
-153 118 -150 157 -201 16 -22 35 -46 42 -53 8 -8 20 -27 28 -43 9 -16 20 -29
25 -29 6 0 10 -5 10 -10 0 -6 24 -43 53 -83 30 -39 61 -86 71 -103 20 -33 23
-22 -54 -154 -5 -8 -27 -49 -49 -91 -22 -41 -49 -92 -60 -113 -12 -21 -20 -47
-18 -59 4 -25 18 -60 26 -67 3 -3 31 -34 61 -70 59 -70 243 -253 311 -310 23
-19 47 -40 53 -45 6 -6 33 -28 61 -50 62 -51 85 -73 85 -84 0 -5 7 -14 14 -21
11 -8 12 -18 6 -36 -5 -13 -8 -24 -5 -24 2 0 -3 -16 -11 -35 -8 -19 -12 -35
-10 -35 2 0 -14 -51 -36 -113 -21 -61 -41 -123 -43 -137 -3 -14 -12 -50 -20
-80 -8 -30 -18 -68 -21 -84 -3 -16 -7 -33 -10 -37 -7 -13 -64 -200 -70 -232
-3 -17 -7 -33 -9 -37 -2 -3 -6 -19 -9 -35 -3 -16 -10 -31 -16 -35 -7 -4 -11
-10 -11 -14 4 -19 -96 -173 -189 -291 -57 -74 -204 -225 -275 -285 -192 -161
-442 -299 -671 -368 -142 -44 -300 -75 -439 -88 -83 -7 -302 -4 -381 6 -112
14 -272 47 -327 66 -23 9 -49 17 -58 19 -9 2 -64 22 -123 45 -323 126 -619
356 -836 649 -94 126 -205 328 -240 436 -7 22 -16 45 -20 50 -7 10 -61 204
-76 275 -4 19 -8 37 -9 40 -1 3 -5 37 -9 75 -5 39 -10 79 -13 90 -5 24 -4 318
1 360 2 17 7 64 11 105 9 86 13 113 15 120 1 3 2 8 1 12 0 6 32 191 44 246 3
12 7 34 10 50 3 15 10 43 15 62 5 19 11 47 14 62 4 24 17 67 34 118 3 8 5 18
4 22 -1 4 5 26 14 50 9 24 17 50 19 58 2 8 13 46 26 85 12 38 22 76 22 82 0 7
4 13 9 13 4 0 8 7 8 15 0 32 159 443 236 610 15 33 27 66 27 73 0 6 4 12 9 12
4 0 8 4 8 9 0 4 18 48 41 97 23 49 41 90 41 91 -1 12 277 546 361 693 11 19
40 70 64 113 40 72 69 122 100 172 7 11 28 48 47 82 19 34 46 79 59 100 13 21
24 40 23 43 -1 3 5 12 12 20 7 8 28 40 47 70 19 30 38 60 42 65 5 6 22 33 38
60 16 28 44 71 62 97 18 26 33 51 33 54 0 4 11 22 25 40 14 18 25 37 25 42 0
6 3 12 8 14 4 2 31 40 61 86 29 45 57 82 61 82 4 0 11 -15 15 -32z"/>
<path d="M3087 5393 c-24 -43 -55 -96 -67 -118 -13 -22 -39 -69 -59 -104 -64
-113 -76 -135 -126 -226 -26 -49 -68 -125 -92 -168 -24 -43 -82 -153 -129
-244 -46 -92 -88 -171 -93 -177 -5 -6 -10 -14 -10 -19 -1 -4 -36 -76 -78 -160
-42 -83 -76 -155 -75 -159 1 -5 -3 -8 -8 -8 -5 0 -9 -3 -8 -7 2 -11 -44 -106
-55 -114 -5 -3 -8 -9 -7 -13 1 -7 -14 -40 -83 -192 -117 -257 -206 -479 -283
-711 -42 -127 -88 -295 -98 -358 -3 -16 -8 -46 -12 -65 -17 -88 -5 -318 23
-445 4 -16 7 -32 8 -35 1 -3 9 -32 20 -65 10 -33 18 -63 17 -68 -1 -4 3 -7 10
-7 6 0 9 -3 5 -6 -6 -6 11 -48 57 -147 52 -109 166 -269 252 -352 93 -91 166
-153 219 -185 22 -13 42 -27 45 -30 12 -14 61 -40 75 -40 8 0 15 -4 15 -8 0
-11 143 -75 226 -102 87 -28 179 -49 249 -58 111 -13 364 -7 460 12 92 18 222
53 240 66 6 3 33 15 60 25 28 10 72 31 98 47 26 15 50 28 52 28 6 0 152 99
185 125 88 70 283 288 279 311 0 4 4 10 9 13 15 9 84 121 75 121 -4 0 -3 4 2
8 25 18 115 259 131 347 2 17 7 37 9 45 13 47 20 132 19 260 0 138 -3 170 -24
250 -5 19 -11 48 -14 63 -5 28 -22 88 -33 117 -4 8 -7 17 -7 20 -1 3 -9 28
-19 55 -56 153 -107 274 -216 510 -23 50 -41 92 -41 94 1 2 -2 7 -7 10 -4 3
-38 67 -76 141 -67 135 -128 251 -181 345 -16 28 -43 77 -61 110 -18 33 -60
106 -94 163 -34 57 -61 108 -61 113 0 5 -3 9 -7 9 -5 0 -17 18 -27 40 -11 22
-24 40 -29 40 -6 0 -8 3 -4 6 3 3 -12 35 -34 70 -21 35 -39 69 -39 74 0 6 -4
10 -10 10 -5 0 -10 4 -10 10 0 9 -69 123 -90 147 -5 7 -10 14 -10 17 0 12
-329 527 -343 537 -5 3 -8 10 -8 15 1 5 -6 17 -14 27 -8 9 -15 20 -15 23 0 2
-8 14 -19 25 -18 20 -19 20 -64 -58z m122 -271 c30 -48 78 -124 107 -169 30
-45 54 -84 54 -88 0 -3 18 -32 40 -64 22 -32 40 -64 40 -70 0 -6 5 -11 10 -11
6 0 10 -4 10 -8 0 -5 50 -91 110 -191 61 -100 110 -186 110 -191 0 -6 5 -10
12 -10 6 0 9 -3 5 -6 -3 -4 5 -21 18 -39 14 -17 25 -35 25 -39 0 -4 16 -31 35
-61 19 -30 33 -55 30 -55 -2 0 9 -21 25 -47 17 -26 30 -53 30 -60 0 -7 4 -13
9 -13 5 0 11 -8 14 -17 8 -24 61 -118 77 -138 7 -8 10 -15 6 -15 -3 0 4 -17
17 -37 12 -21 31 -56 42 -78 11 -22 23 -41 28 -43 4 -2 7 -12 7 -22 0 -10 3
-20 8 -22 8 -4 87 -161 83 -167 -1 -2 1 -7 6 -10 7 -5 65 -117 68 -131 0 -3
14 -34 30 -70 17 -36 30 -67 30 -70 1 -3 6 -14 12 -25 18 -33 151 -381 153
-400 0 -3 3 -10 5 -17 3 -7 15 -58 28 -113 23 -103 28 -244 13 -379 -7 -63
-32 -178 -46 -211 -5 -11 -12 -31 -16 -45 -7 -26 -31 -84 -67 -160 -59 -125
-242 -346 -359 -434 -179 -134 -394 -228 -588 -257 -127 -19 -405 -15 -440 6
-3 2 -25 6 -48 10 -89 13 -295 95 -397 158 -205 127 -383 324 -490 542 -41 85
-85 202 -78 209 2 2 0 13 -5 23 -6 10 -13 39 -17 63 -4 25 -8 47 -11 51 -4 8
-16 128 -18 194 -1 48 8 134 19 185 4 14 9 39 11 55 8 44 53 204 69 248 8 20
15 40 15 45 0 4 7 27 16 52 18 49 26 75 24 75 0 0 12 32 28 70 16 39 30 75 31
80 2 6 9 25 17 44 8 18 14 35 14 38 0 2 12 30 26 61 14 31 34 77 44 102 10 25
33 77 51 115 18 39 33 72 33 75 1 3 11 25 23 50 11 25 35 77 53 115 40 87 323
658 330 665 3 3 30 52 60 110 108 208 172 325 209 386 17 27 38 66 47 87 9 20
20 37 26 37 5 0 7 4 4 9 -3 5 0 14 8 20 7 6 21 29 31 51 10 22 23 40 29 40 6
0 35 -40 65 -88z"/>
<path d="M2555 2519 c-49 -9 -141 -33 -203 -53 -63 -20 -134 -36 -159 -36
l-45 0 5 -87 c10 -151 40 -262 107 -398 78 -158 188 -289 325 -390 22 -17 42
-33 45 -36 5 -6 25 -16 130 -69 59 -29 169 -69 210 -76 14 -3 49 -9 78 -15 70
-14 206 -17 295 -7 283 33 543 178 722 403 22 28 45 53 50 57 6 4 7 8 2 8 -4
0 8 24 28 52 19 29 35 58 35 65 0 7 4 13 8 13 5 0 9 6 9 13 0 8 10 34 22 60
12 25 24 58 27 73 3 15 9 35 14 44 5 10 7 19 5 22 -3 3 1 25 9 51 15 52 12 61
-16 46 -19 -10 -35 -15 -88 -26 -14 -3 -86 -6 -160 -8 -247 -5 -486 42 -729
142 -46 19 -91 39 -100 44 -48 27 -197 85 -271 104 -105 28 -229 29 -355 4z"/>
<path d="M3639 7382 c-1 -9 -1 -20 -1 -23 1 -3 3 -38 6 -79 3 -40 7 -74 8 -75
2 -1 21 -6 42 -11 44 -11 44 -8 51 -136 l5 -87 -39 -12 -38 -11 2 -62 c2 -33
4 -72 4 -86 2 -50 14 -55 72 -27 30 13 99 45 154 70 367 166 372 168 360 187
-4 6 -13 90 -17 163 -1 20 -5 37 -8 38 -3 0 -12 2 -20 4 -22 4 -520 144 -552
155 -23 7 -28 6 -29 -8z m332 -246 c7 -3 28 -8 44 -11 17 -3 36 -7 43 -9 28
-5 4 -23 -77 -54 -49 -19 -88 -29 -93 -24 -5 5 -11 33 -13 61 l-3 52 42 -5
c23 -3 49 -7 57 -10z"/>
<path d="M3982 6716 c-67 -17 -132 -46 -132 -59 0 -6 -3 -8 -6 -4 -9 8 -61
-51 -80 -92 -9 -19 -17 -59 -17 -90 -1 -117 19 -181 82 -260 l35 -44 -22 -18
c-18 -14 -21 -24 -16 -56 8 -48 11 -53 32 -48 36 7 297 68 300 70 3 2 -34 180
-47 223 -5 18 -9 33 -9 35 1 1 -2 13 -7 26 -7 24 -4 24 -88 6 -30 -7 -38 -15
-28 -33 5 -9 12 -38 15 -64 7 -45 6 -47 -15 -43 -46 9 -84 71 -82 133 2 44 6
55 31 81 29 31 140 65 190 59 66 -9 105 -59 108 -141 2 -40 -2 -52 -27 -76
-26 -26 -27 -31 -18 -66 17 -62 21 -79 21 -98 -1 -39 53 -29 101 19 33 33 56
75 64 113 9 49 9 136 0 149 -5 6 -7 12 -4 12 8 0 -13 69 -36 120 -27 58 -91
122 -142 142 -51 19 -135 21 -203 4z"/>
<path d="M4370 6072 c-36 -16 -67 -28 -70 -29 -3 0 -22 -8 -44 -17 -21 -9 -42
-16 -46 -16 -4 0 -20 -6 -36 -14 -28 -13 -222 -89 -256 -100 -21 -6 -23 -24
-6 -63 6 -15 12 -31 13 -35 2 -5 4 -10 5 -13 1 -3 3 -8 5 -12 1 -5 7 -21 14
-37 13 -32 7 -33 129 15 45 17 85 30 88 27 2 -3 8 -19 13 -35 8 -27 4 -35 -43
-84 -92 -99 -107 -120 -100 -143 6 -21 20 -56 44 -111 8 -16 14 -34 15 -40 1
-11 27 -8 35 5 8 13 93 112 127 148 l31 33 41 -27 c111 -73 271 15 265 146 -3
62 -12 92 -79 255 -5 11 -9 22 -10 25 -7 19 -18 49 -28 70 -14 34 -14 32 -22
58 -9 27 -6 27 -85 -6z m48 -266 c26 -66 23 -99 -9 -117 -32 -17 -64 3 -87 53
-37 84 -36 94 6 111 20 8 43 15 51 14 8 -1 25 -29 39 -61z"/>
<path d="M4625 5465 c-92 -50 -241 -128 -335 -176 -47 -24 -86 -47 -88 -51 -2
-5 -10 -8 -18 -8 -10 0 -4 -19 20 -67 19 -38 41 -77 49 -87 14 -19 15 -19 48
1 19 11 86 47 149 80 63 33 160 84 215 113 55 29 104 56 109 60 10 10 -60 156
-78 163 -6 2 -38 -10 -71 -28z"/>
<path d="M4635 5032 c-137 -35 -258 -65 -268 -67 -59 -13 -59 -13 -30 -58 14
-23 30 -43 34 -45 5 -2 9 -8 9 -14 0 -18 35 -55 50 -52 8 1 29 5 45 8 28 6 33
2 86 -78 l57 -84 -24 -28 c-13 -16 -23 -34 -24 -41 0 -18 93 -152 107 -153 6
0 26 23 44 50 18 28 36 50 41 50 4 0 8 5 8 10 0 10 8 22 38 55 7 8 10 15 6 15
-4 0 -1 6 8 13 8 6 58 74 111 149 53 75 101 139 107 143 8 5 -3 38 -20 55 -3
3 -25 35 -50 72 -33 50 -50 67 -65 65 -11 -1 -132 -30 -270 -65z m196 -131
c-11 -19 -29 -42 -92 -112 l-36 -41 -33 52 c-18 28 -30 53 -27 56 5 5 175 62
190 63 4 1 3 -7 -2 -18z"/>
<path d="M5161 4690 c-13 -11 -59 -53 -103 -93 -44 -39 -91 -81 -103 -92 -12
-11 -56 -50 -97 -87 -41 -37 -82 -73 -91 -80 -16 -12 -15 -15 6 -40 61 -71
137 -156 183 -207 92 -99 104 -114 104 -122 0 -20 32 -6 77 32 26 23 49 45 51
49 3 7 -15 28 -94 111 -24 26 -44 50 -44 53 0 3 -14 19 -31 35 l-30 29 35 33
c62 56 91 82 161 144 37 33 83 74 102 92 l35 32 -49 53 c-26 29 -53 58 -60 65
-15 17 -24 16 -52 -7z"/>
<path d="M5552 4312 c-6 -2 -12 -7 -12 -12 0 -7 -70 -88 -132 -152 -14 -16
-24 -28 -21 -28 3 0 -3 -8 -13 -17 -11 -10 -48 -52 -84 -93 -36 -41 -67 -77
-70 -80 -3 -3 -15 -17 -27 -31 -27 -29 -26 -30 63 -105 66 -56 181 -156 229
-199 6 -5 21 -19 34 -30 l23 -20 49 55 49 55 -43 40 c-23 22 -75 69 -115 104
l-73 63 31 29 c16 16 30 33 30 37 0 5 12 20 28 34 15 14 46 47 68 74 23 27 54
63 69 79 14 17 35 42 45 56 l20 27 -57 48 c-30 27 -61 54 -67 60 -6 6 -17 9
-24 6z"/>
</g>
</svg>
